<?xml version="1.0" encoding="utf-8"?>
<!-- Generator: Adobe Illustrator 15.0.0, SVG Export Plug-In . SVG Version: 6.00 Build 0)  -->
<!DOCTYPE svg PUBLIC "-//W3C//DTD SVG 1.1 Basic//EN" "http://www.w3.org/Graphics/SVG/1.1/DTD/svg11-basic.dtd">
<svg version="1.1" baseProfile="basic" id="レイヤー_1"
	 xmlns="http://www.w3.org/2000/svg" xmlns:xlink="http://www.w3.org/1999/xlink" x="0px" y="0px" width="32px" height="10.608px"
	 viewBox="0 0 32 10.608" xml:space="preserve">
<rect x="0.986" y="0.588" fill="#C8688B" width="27.086" height="9.305"/>
<rect x="19.286" y="1.83" fill="#231815" width="7.41" height="7.41"/>
<g>
	<rect x="15.012" y="3.555" fill="#FFFFFF" width="0.876" height="0.451"/>
	<g>
		<rect x="15.813" y="3.555" fill="#AAC8C7" width="0.225" height="0.451"/>
		<rect x="14.899" y="3.555" fill="#AAC8C7" width="0.225" height="0.451"/>
	</g>
</g>
<g>
	<g>
		<rect x="15.966" y="5.584" fill="#AAC8C7" width="0.404" height="0.403"/>
		<rect x="14.33" y="5.584" fill="#AAC8C7" width="0.403" height="0.403"/>
	</g>
	<g>
		<rect x="15.966" y="4.493" fill="#AAC8C7" width="0.404" height="0.404"/>
		<rect x="14.33" y="4.493" fill="#AAC8C7" width="0.403" height="0.404"/>
	</g>
	<rect x="14.531" y="4.672" fill="#FFFFFF" width="1.569" height="1.136"/>
</g>
<g>
	<rect x="16.818" y="4.713" fill="#231815" width="0.451" height="0.876"/>
	<g>
		<rect x="16.818" y="5.514" fill="#AAC8C7" width="0.451" height="0.226"/>
		<rect x="16.818" y="4.6" fill="#AAC8C7" width="0.451" height="0.225"/>
	</g>
</g>
<g>
	<rect x="10.446" y="4.694" fill="#231815" width="0.451" height="0.876"/>
	<g>
		<rect x="10.446" y="5.495" fill="#AAC8C7" width="0.451" height="0.225"/>
		<rect x="10.446" y="4.581" fill="#AAC8C7" width="0.451" height="0.226"/>
	</g>
</g>
<g>
	<rect x="11" y="6.215" fill="#231815" width="0.451" height="0.876"/>
	<g>
		<rect x="11" y="7.016" fill="#AAC8C7" width="0.451" height="0.225"/>
		<rect x="11" y="6.102" fill="#AAC8C7" width="0.451" height="0.225"/>
	</g>
</g>
<g>
	<rect x="7.588" y="6.559" fill="#231815" width="0.45" height="0.876"/>
	<g>
		<rect x="7.588" y="7.36" fill="#AAC8C7" width="0.45" height="0.225"/>
		<rect x="7.588" y="6.446" fill="#AAC8C7" width="0.45" height="0.225"/>
	</g>
</g>
<g>
	<rect x="11.201" y="2.76" fill="#231815" width="0.876" height="0.45"/>
	<g>
		<rect x="11.051" y="2.76" fill="#AAC8C7" width="0.226" height="0.45"/>
		<rect x="11.964" y="2.76" fill="#AAC8C7" width="0.226" height="0.45"/>
	</g>
</g>
<g>
	<rect x="13.328" y="6.559" fill="#FFFFFF" width="0.451" height="0.876"/>
	<g>
		<rect x="13.328" y="7.36" fill="#AAC8C7" width="0.451" height="0.225"/>
		<rect x="13.328" y="6.446" fill="#AAC8C7" width="0.451" height="0.225"/>
	</g>
</g>
<g>
	<rect x="19.674" y="1.498" fill="#AAC8C7" width="0.1" height="0.338"/>
	<rect x="19.939" y="1.498" fill="#AAC8C7" width="0.1" height="0.338"/>
	<rect x="20.204" y="1.498" fill="#AAC8C7" width="0.1" height="0.338"/>
	<rect x="20.469" y="1.498" fill="#AAC8C7" width="0.101" height="0.338"/>
	<rect x="20.734" y="1.498" fill="#AAC8C7" width="0.1" height="0.338"/>
	<rect x="20.999" y="1.498" fill="#AAC8C7" width="0.1" height="0.338"/>
	<rect x="21.264" y="1.498" fill="#AAC8C7" width="0.1" height="0.338"/>
	<rect x="21.529" y="1.498" fill="#AAC8C7" width="0.1" height="0.338"/>
	<rect x="21.793" y="1.498" fill="#AAC8C7" width="0.1" height="0.338"/>
	<rect x="22.058" y="1.498" fill="#AAC8C7" width="0.101" height="0.338"/>
	<rect x="22.323" y="1.498" fill="#AAC8C7" width="0.101" height="0.338"/>
	<rect x="22.588" y="1.498" fill="#AAC8C7" width="0.1" height="0.338"/>
	<rect x="22.854" y="1.498" fill="#AAC8C7" width="0.1" height="0.338"/>
	<rect x="23.119" y="1.498" fill="#AAC8C7" width="0.1" height="0.338"/>
	<rect x="23.383" y="1.498" fill="#AAC8C7" width="0.1" height="0.338"/>
	<rect x="23.648" y="1.498" fill="#AAC8C7" width="0.101" height="0.338"/>
	<rect x="23.913" y="1.498" fill="#AAC8C7" width="0.1" height="0.338"/>
	<rect x="24.178" y="1.498" fill="#AAC8C7" width="0.1" height="0.338"/>
	<rect x="24.443" y="1.498" fill="#AAC8C7" width="0.1" height="0.338"/>
	<rect x="24.708" y="1.498" fill="#AAC8C7" width="0.1" height="0.338"/>
	<rect x="24.973" y="1.498" fill="#AAC8C7" width="0.101" height="0.338"/>
	<rect x="25.238" y="1.498" fill="#AAC8C7" width="0.101" height="0.338"/>
	<rect x="25.768" y="1.498" fill="#AAC8C7" width="0.1" height="0.338"/>
	<rect x="25.502" y="1.498" fill="#AAC8C7" width="0.101" height="0.338"/>
	<rect x="26.033" y="1.498" fill="#AAC8C7" width="0.1" height="0.338"/>
</g>
<g>
	<rect x="19.674" y="9.24" fill="#AAC8C7" width="0.1" height="0.337"/>
	<rect x="19.939" y="9.24" fill="#AAC8C7" width="0.1" height="0.337"/>
	<rect x="20.204" y="9.24" fill="#AAC8C7" width="0.1" height="0.337"/>
	<rect x="20.469" y="9.24" fill="#AAC8C7" width="0.101" height="0.337"/>
	<rect x="20.734" y="9.24" fill="#AAC8C7" width="0.1" height="0.337"/>
	<rect x="20.999" y="9.24" fill="#AAC8C7" width="0.1" height="0.337"/>
	<rect x="21.264" y="9.24" fill="#AAC8C7" width="0.1" height="0.337"/>
	<rect x="21.529" y="9.24" fill="#AAC8C7" width="0.1" height="0.337"/>
	<rect x="21.793" y="9.24" fill="#AAC8C7" width="0.1" height="0.337"/>
	<rect x="22.058" y="9.24" fill="#AAC8C7" width="0.101" height="0.337"/>
	<rect x="22.323" y="9.24" fill="#AAC8C7" width="0.101" height="0.337"/>
	<rect x="22.588" y="9.24" fill="#AAC8C7" width="0.1" height="0.337"/>
	<rect x="22.854" y="9.24" fill="#AAC8C7" width="0.1" height="0.337"/>
	<rect x="23.119" y="9.24" fill="#AAC8C7" width="0.1" height="0.337"/>
	<rect x="23.383" y="9.24" fill="#AAC8C7" width="0.1" height="0.337"/>
	<rect x="23.648" y="9.24" fill="#AAC8C7" width="0.101" height="0.337"/>
	<rect x="23.913" y="9.24" fill="#AAC8C7" width="0.1" height="0.337"/>
	<rect x="24.178" y="9.24" fill="#AAC8C7" width="0.1" height="0.337"/>
	<rect x="24.443" y="9.24" fill="#AAC8C7" width="0.1" height="0.337"/>
	<rect x="24.708" y="9.24" fill="#AAC8C7" width="0.1" height="0.337"/>
	<rect x="24.973" y="9.24" fill="#AAC8C7" width="0.101" height="0.337"/>
	<rect x="25.238" y="9.24" fill="#AAC8C7" width="0.101" height="0.337"/>
	<rect x="25.768" y="9.24" fill="#AAC8C7" width="0.1" height="0.337"/>
	<rect x="25.502" y="9.24" fill="#AAC8C7" width="0.101" height="0.337"/>
	<rect x="26.033" y="9.24" fill="#AAC8C7" width="0.1" height="0.337"/>
</g>
<g>
	<rect x="26.862" y="2.305" fill="#AAC8C7" width="0.338" height="0.1"/>
	<rect x="26.862" y="2.57" fill="#AAC8C7" width="0.338" height="0.1"/>
	<rect x="26.862" y="2.835" fill="#AAC8C7" width="0.338" height="0.1"/>
	<rect x="26.862" y="3.1" fill="#AAC8C7" width="0.338" height="0.1"/>
	<rect x="26.862" y="3.365" fill="#AAC8C7" width="0.338" height="0.1"/>
	<rect x="26.862" y="3.63" fill="#AAC8C7" width="0.338" height="0.1"/>
	<rect x="26.862" y="3.895" fill="#AAC8C7" width="0.338" height="0.1"/>
	<rect x="26.862" y="4.16" fill="#AAC8C7" width="0.338" height="0.1"/>
	<rect x="26.862" y="4.425" fill="#AAC8C7" width="0.338" height="0.1"/>
	<rect x="26.862" y="4.689" fill="#AAC8C7" width="0.338" height="0.1"/>
	<rect x="26.862" y="4.955" fill="#AAC8C7" width="0.338" height="0.1"/>
	<rect x="26.862" y="5.219" fill="#AAC8C7" width="0.338" height="0.101"/>
	<rect x="26.862" y="5.484" fill="#AAC8C7" width="0.338" height="0.1"/>
	<rect x="26.862" y="5.75" fill="#AAC8C7" width="0.338" height="0.1"/>
	<rect x="26.862" y="6.015" fill="#AAC8C7" width="0.338" height="0.1"/>
	<rect x="26.862" y="6.279" fill="#AAC8C7" width="0.338" height="0.1"/>
	<rect x="26.862" y="6.544" fill="#AAC8C7" width="0.338" height="0.1"/>
	<rect x="26.862" y="6.809" fill="#AAC8C7" width="0.338" height="0.101"/>
	<rect x="26.862" y="7.074" fill="#AAC8C7" width="0.338" height="0.101"/>
	<rect x="26.862" y="7.339" fill="#AAC8C7" width="0.338" height="0.1"/>
	<rect x="26.862" y="7.604" fill="#AAC8C7" width="0.338" height="0.1"/>
	<rect x="26.862" y="7.869" fill="#AAC8C7" width="0.338" height="0.1"/>
	<rect x="26.862" y="8.399" fill="#AAC8C7" width="0.338" height="0.1"/>
	<rect x="26.862" y="8.134" fill="#AAC8C7" width="0.338" height="0.1"/>
	<rect x="26.862" y="8.664" fill="#AAC8C7" width="0.338" height="0.101"/>
</g>
<g>
	<rect x="18.948" y="2.305" fill="#AAC8C7" width="0.338" height="0.1"/>
	<rect x="18.948" y="2.57" fill="#AAC8C7" width="0.338" height="0.1"/>
	<rect x="18.948" y="2.835" fill="#AAC8C7" width="0.338" height="0.1"/>
	<rect x="18.948" y="3.1" fill="#AAC8C7" width="0.338" height="0.1"/>
	<rect x="18.948" y="3.365" fill="#AAC8C7" width="0.338" height="0.1"/>
	<rect x="18.948" y="3.63" fill="#AAC8C7" width="0.338" height="0.1"/>
	<rect x="18.948" y="3.895" fill="#AAC8C7" width="0.338" height="0.1"/>
	<rect x="18.948" y="4.16" fill="#AAC8C7" width="0.338" height="0.1"/>
	<rect x="18.948" y="4.425" fill="#AAC8C7" width="0.338" height="0.1"/>
	<rect x="18.948" y="4.689" fill="#AAC8C7" width="0.338" height="0.1"/>
	<rect x="18.948" y="4.955" fill="#AAC8C7" width="0.338" height="0.1"/>
	<rect x="18.948" y="5.219" fill="#AAC8C7" width="0.338" height="0.101"/>
	<rect x="18.948" y="5.484" fill="#AAC8C7" width="0.338" height="0.1"/>
	<rect x="18.948" y="5.75" fill="#AAC8C7" width="0.338" height="0.1"/>
	<rect x="18.948" y="6.015" fill="#AAC8C7" width="0.338" height="0.1"/>
	<rect x="18.948" y="6.279" fill="#AAC8C7" width="0.338" height="0.1"/>
	<rect x="18.948" y="6.544" fill="#AAC8C7" width="0.338" height="0.1"/>
	<rect x="18.948" y="6.809" fill="#AAC8C7" width="0.338" height="0.101"/>
	<rect x="18.948" y="7.074" fill="#AAC8C7" width="0.338" height="0.101"/>
	<rect x="18.948" y="7.339" fill="#AAC8C7" width="0.338" height="0.1"/>
	<rect x="18.948" y="7.604" fill="#AAC8C7" width="0.338" height="0.1"/>
	<rect x="18.948" y="7.869" fill="#AAC8C7" width="0.338" height="0.1"/>
	<rect x="18.948" y="8.399" fill="#AAC8C7" width="0.338" height="0.1"/>
	<rect x="18.948" y="8.134" fill="#AAC8C7" width="0.338" height="0.1"/>
	<rect x="18.948" y="8.664" fill="#AAC8C7" width="0.338" height="0.101"/>
</g>
<text transform="matrix(-4.371139e-008 1 -1 -4.371139e-008 23.1265 2.6704)" fill="#FFFFFF" font-family="'KozGoPro-Regular-90ms-RKSJ-H'" font-size="0.7011">RX631F</text>
<path fill="#3E3A39" d="M26.582,2.686c0,0.235-0.19,0.426-0.426,0.426h-0.131c-0.235,0-0.426-0.19-0.426-0.426V2.555
	c0-0.235,0.191-0.426,0.426-0.426h0.131c0.235,0,0.426,0.19,0.426,0.426V2.686z"/>
<g id="smd_157sw_1_" transform="matrix(1, 0, 0, 1, 8.7817, 8.95615)">
	<g transform="matrix(0, -1, 1, 0, 0.777996, 13.82)">
		<polygon fill="#717071" points="17.161,-2.684 17.161,-2.72 17.957,-2.72 17.957,-2.684 18.558,-2.684 18.558,-4.248 
			16.56,-4.248 16.56,-2.684 		"/>
		<polygon fill="#717071" points="17.957,-4.499 17.957,-4.463 17.161,-4.463 17.161,-4.499 16.56,-4.499 16.56,-2.946 
			18.558,-2.946 18.558,-4.499 		"/>
		<ellipse fill="#611C1B" cx="17.559" cy="-3.591" rx="0.5" ry="0.493"/>
		<path opacity="0.2" fill="#070001" d="M18.051-3.616c0-0.276-0.22-0.5-0.492-0.5s-0.493,0.224-0.493,0.5v0.024
			c0-0.277,0.22-0.501,0.493-0.501c0.272,0,0.492,0.224,0.492,0.501V-3.616z"/>
		<ellipse fill="#7D2622" cx="17.559" cy="-3.591" rx="0.483" ry="0.475"/>
		<ellipse fill="#FFFFFF" cx="17.559" cy="-3.58" rx="0.482" ry="0.475"/>
		<g>
			<path opacity="0.1" fill="#070001" d="M17.571-3.109c0.262,0,0.474-0.216,0.474-0.483s-0.212-0.482-0.474-0.482h-0.023
				c0.262,0,0.475,0.216,0.475,0.482s-0.212,0.483-0.475,0.483H17.571z"/>
			<path opacity="0.2" fill="#FFFFFF" d="M17.571-4.074c-0.263,0-0.475,0.216-0.475,0.482c0,0.267,0.212,0.483,0.475,0.483h-0.023
				c-0.262,0-0.475-0.216-0.475-0.483s0.212-0.482,0.475-0.482H17.571z"/>
		</g>
		
			<rect x="16.842" y="-3.003" transform="matrix(-2.547107e-006 -1 1 -2.547107e-006 19.5624 14.1579)" opacity="0.2" fill="#FFFFFF" width="0.036" height="0.602"/>
		
			<rect x="18.239" y="-3.003" transform="matrix(-2.547107e-006 -1 1 -2.547107e-006 20.9597 15.5551)" opacity="0.2" fill="#717071" width="0.036" height="0.601"/>
		
			<rect x="17.541" y="-3.136" transform="matrix(-2.547107e-006 -1 1 -2.547107e-006 20.2973 14.8205)" opacity="0.2" fill="#FFFFFF" width="0.036" height="0.796"/>
		
			<rect x="16.842" y="-4.78" transform="matrix(-2.547107e-006 -1 1 -2.547107e-006 21.3395 12.3812)" opacity="0.2" fill="#070001" width="0.036" height="0.601"/>
		
			<rect x="18.239" y="-4.78" transform="matrix(-2.547107e-006 -1 1 -2.547107e-006 22.7365 13.7782)" opacity="0.2" fill="#070001" width="0.036" height="0.601"/>
		
			<rect x="17.541" y="-4.841" transform="matrix(-2.547107e-006 -1 1 -2.547107e-006 22.0019 13.1159)" opacity="0.2" fill="#070001" width="0.036" height="0.796"/>
	</g>
	<g>
		<rect x="-2.324" y="-5.005" fill="#E5E5E4" width="0.22" height="0.265"/>
		<rect x="-3.523" y="-5.005" fill="#E5E5E4" width="0.22" height="0.265"/>
		<rect x="-2.324" y="-2.755" fill="#E5E5E4" width="0.22" height="0.265"/>
		<rect x="-3.523" y="-2.755" fill="#E5E5E4" width="0.22" height="0.265"/>
		<rect x="-2.989" y="-2.522" opacity="0.2" fill="#FFFFFF" width="0.334" height="0.032"/>
		<rect x="-2.324" y="-2.522" opacity="0.2" fill="#FFFFFF" width="0.22" height="0.032"/>
		<rect x="-3.523" y="-2.522" opacity="0.2" fill="#FFFFFF" width="0.22" height="0.032"/>
		<rect x="-2.326" y="-5.009" opacity="0.2" fill="#070001" width="0.221" height="0.01"/>
		<rect x="-3.525" y="-5.009" opacity="0.2" fill="#070001" width="0.221" height="0.01"/>
		<rect x="-2.323" y="-4.774" opacity="0.1" fill="#070001" width="0.22" height="0.032"/>
		<rect x="-3.522" y="-4.774" opacity="0.1" fill="#070001" width="0.221" height="0.032"/>
	</g>
</g>
<text transform="matrix(1 0 0 1 14.3071 8.2339)" fill="#FFFFFF" font-family="'KozGoPro-Regular-90ms-RKSJ-H'" font-size="0.881">GR-CITRUS</text>
<rect x="9.911" y="3.181" fill="#AAC8C7" width="0.238" height="0.1"/>
<rect x="9.911" y="3.742" fill="#AAC8C7" width="0.238" height="0.1"/>
<rect x="9.911" y="2.62" fill="#AAC8C7" width="0.238" height="0.1"/>
<rect x="9.038" y="3.181" fill="#AAC8C7" width="0.238" height="0.1"/>
<rect x="9.038" y="3.742" fill="#AAC8C7" width="0.238" height="0.1"/>
<rect x="9.038" y="2.62" fill="#AAC8C7" width="0.238" height="0.1"/>
<rect x="9.239" y="2.489" fill="#231815" width="0.895" height="1.525"/>
<g id="con2_usb_micro_b_at_1_" transform="matrix(1, 0, 0, 1, 14.5557, 123.449)">
	<g id="con2_usb_micro_b_at" transform="matrix(1, 0, 0, 1, 18.6038, 120.082)">
		<g>
			<rect x="-29.848" y="-239.063" fill="#666767" width="0.229" height="0.183"/>
			<rect x="-29.822" y="-239.063" fill="#999999" width="0.202" height="0.017"/>
		</g>
		<g>
			<rect x="-29.848" y="-238.722" fill="#666767" width="0.229" height="0.183"/>
			<rect x="-29.822" y="-238.722" fill="#999999" width="0.202" height="0.017"/>
		</g>
		<g>
			<rect x="-29.848" y="-238.383" fill="#666767" width="0.229" height="0.183"/>
			<rect x="-29.822" y="-238.383" fill="#999999" width="0.202" height="0.017"/>
		</g>
		<g>
			<rect x="-29.848" y="-238.042" fill="#666767" width="0.229" height="0.183"/>
			<rect x="-29.822" y="-238.042" fill="#999999" width="0.202" height="0.017"/>
		</g>
		<g>
			<rect x="-29.848" y="-237.702" fill="#666767" width="0.229" height="0.183"/>
			<rect x="-29.822" y="-237.702" fill="#999999" width="0.202" height="0.016"/>
		</g>
		<g>
			<polygon fill="#B4B3B3" points="-32.936,-236.549 -32.936,-240.028 -29.795,-240.028 -29.795,-236.548 			"/>
			<rect x="-31.578" y="-236.511" fill="#666767" width="0.562" height="0.184"/>
			<rect x="-31.578" y="-240.255" fill="#666767" width="0.562" height="0.185"/>
			<rect x="-29.819" y="-240.028" fill="#CCCCCC" width="0.024" height="3.479"/>
			<rect x="-32.678" y="-239.241" fill="#333333" width="2.883" height="1.9"/>
			<polygon fill="#B4B3B3" points="-32.867,-240.07 -32.955,-240.07 -33.155,-240.188 -33.155,-240.255 			"/>
			<polygon fill="#CCCCCC" points="-32.955,-240.07 -32.955,-240.07 -33.055,-240.07 -33.155,-240.188 			"/>
			<polygon fill="#B4B3B3" points="-33.155,-236.326 -33.155,-236.393 -32.955,-236.511 -32.867,-236.511 			"/>
			<polygon fill="#CCCCCC" points="-33.155,-236.393 -33.055,-236.511 -32.955,-236.512 -32.955,-236.511 			"/>
			<g>
				<g>
					<rect x="-32.867" y="-237.565" fill="#F2F2F2" width="0.12" height="0.088"/>
				</g>
				<g>
					<rect x="-32.867" y="-237.95" fill="#F2F2F2" width="0.12" height="0.088"/>
				</g>
				<g>
					<rect x="-32.867" y="-238.335" fill="#F2F2F2" width="0.12" height="0.088"/>
				</g>
				<g>
					<rect x="-32.867" y="-238.72" fill="#F2F2F2" width="0.12" height="0.088"/>
				</g>
				<g>
					<rect x="-32.867" y="-239.105" fill="#F2F2F2" width="0.12" height="0.088"/>
				</g>
				<g>
					<rect x="-32.867" y="-239.105" fill="#808081" width="0.12" height="0.018"/>
				</g>
				<g>
					<rect x="-32.867" y="-238.72" fill="#808081" width="0.12" height="0.018"/>
				</g>
				<g>
					<rect x="-32.867" y="-238.335" fill="#808081" width="0.12" height="0.018"/>
				</g>
				<g>
					<rect x="-32.867" y="-237.95" fill="#808081" width="0.12" height="0.019"/>
				</g>
				<g>
					<rect x="-32.867" y="-237.564" fill="#808081" width="0.12" height="0.018"/>
				</g>
			</g>
			<path fill="#4E4D4D" d="M-32.901-239.199v0.095h0.073v0.088h-0.073v0.297h0.073v0.088h-0.073v0.297h0.073v0.088h-0.073v0.296
				h0.073v0.089h-0.073v0.296h0.073v0.088h-0.073v0.06v0.05c0,0.014,0.012,0.027,0.027,0.027h0.196c0.015,0,0.027-0.012,0.027-0.027
				v-1.847c0-0.014-0.012-0.027-0.027-0.027h-0.196c-0.015,0-0.027,0.012-0.027,0.027V-239.199z"/>
			<path fill="#CCCCCC" d="M-29.9-240.07l0.105,0.042v0.468c0,0-0.021-0.425-0.052-0.44s-0.053,0.02-0.053,0.02V-240.07z"/>
			<path fill="#CCCCCC" d="M-29.9-236.511l0.105-0.042v-0.468c0,0-0.021,0.425-0.053,0.44c-0.031,0.015-0.052-0.02-0.052-0.02
				V-236.511z"/>
			<path fill="#E6E6E5" d="M-29.795-237.137h-0.302v-0.296h0.302v-0.085H-29.9v-1.544h0.104v-0.097h-0.302v-0.296h0.302v-0.614
				h-3.14v3.558h3.14V-237.137z M-32.353-239.159h-0.15v-0.294h0.163c0.051-0.079,0.141-0.131,0.242-0.131
				c0.11,0,0.204,0.041,0.252,0.131l0,0h0.827v0.294h-0.827c-0.049,0.09-0.143,0.152-0.253,0.152S-32.305-239.07-32.353-239.159z
				 M-32.353-237.15h-0.15v-0.294h0.163c0.051-0.079,0.141-0.13,0.242-0.13c0.11,0,0.204,0.04,0.252,0.13l0,0h0.827v0.294h-0.827
				c-0.049,0.09-0.143,0.152-0.253,0.152S-32.305-237.059-32.353-237.15z"/>
			<polygon fill="#F2F2F2" points="-32.936,-239.995 -32.936,-240.07 -29.9,-240.07 -29.9,-239.787 			"/>
			<polygon fill="#999999" points="-32.936,-236.511 -30.909,-236.616 -29.9,-236.721 -29.9,-236.511 			"/>
			<rect x="-31.044" y="-239.454" fill="#CCCCCC" width="0.024" height="0.294"/>
			<rect x="-31.044" y="-237.443" fill="#CCCCCC" width="0.024" height="0.293"/>
			<rect x="-32.898" y="-239.896" fill="#B4B3B3" width="0.122" height="3.21"/>
			<rect x="-32.936" y="-239.896" fill="#CCCCCC" width="0.058" height="3.21"/>
		</g>
	</g>
</g>
<g id="chipled_0805_3_" transform="matrix(1, 0, 0, 1, 11.6415, 32.1755)">
	<g transform="matrix(0, 1, -1, 0, 5.62951, 1.77951)">
		<g id="led-0603_4_" transform="matrix(1, 0, 0, 1, 21.5539, 31.3385)">
			<line fill="none" x1="-53.865" y1="-40.755" x2="-53.865" y2="-42.09"/>
			
				<rect x="-54.897" y="-41.786" transform="matrix(2.578893e-006 1 -1 2.578893e-006 -95.6507 12.786)" fill="#F2F2F2" width="1.357" height="0.708"/>
			<path opacity="0.7" fill="#2EAC6F" d="M-53.864-41.631c0,0-0.086-0.119-0.079-0.16c0.007-0.041-0.027-0.1,0-0.125l0.078,0.004
				L-53.864-41.631z"/>
			<g>
				
					<rect x="-54.303" y="-41.508" transform="matrix(2.578893e-006 1 -1 2.578893e-006 -95.6429 12.8041)" fill="#FFFFFF" width="0.158" height="0.177"/>
				
					<rect x="-54.214" y="-41.424" transform="matrix(2.578893e-006 1 -1 2.578893e-006 -95.5545 12.7157)" fill="#B4B3B3" width="0.158" height="0.009"/>
			</g>
			<g>
				<polygon fill="#CDC28F" points="-53.943,-41.738 -53.924,-41.916 -54.059,-41.916 -54.04,-41.738 				"/>
				<g>
					<path fill="#CDC28F" d="M-53.98-41.75c0,0,0,0.001,0,0.002c-0.006,0.049-0.019,0.083-0.03,0.11
						c-0.015,0.039-0.144,0.104-0.128,0.153c0.002,0.005-0.002,0.011-0.008,0.012c-0.007,0.001-0.013-0.002-0.015-0.007
						c-0.018-0.056,0.114-0.125,0.129-0.165c0.012-0.027,0.023-0.059,0.029-0.105c0-0.005,0.006-0.01,0.013-0.009
						C-53.984-41.758-53.98-41.755-53.98-41.75z"/>
				</g>
				<polygon fill="#CDC28F" points="-54.476,-41.107 -54.495,-40.928 -54.36,-40.928 -54.379,-41.107 				"/>
				<g>
					<path fill="#CDC28F" d="M-54.195-41.412c0,0.004-0.004,0.009-0.009,0.01c-0.054,0.012-0.213,0.201-0.213,0.348
						c0,0.006-0.004,0.011-0.011,0.011c-0.006,0-0.012-0.005-0.012-0.011v0c0-0.139,0.142-0.35,0.229-0.368
						c0.006-0.001,0.012,0.002,0.014,0.008C-54.195-41.414-54.195-41.413-54.195-41.412z"/>
				</g>
				<path fill="#CDC28F" d="M-54.192-41.499c0,0,0,0.066,0.058,0.071c0-0.013,0-0.071,0-0.071H-54.192z"/>
				<path fill="#CDC28F" d="M-54.251-41.419c0,0,0.057-0.029,0.065-0.01c0.009,0.02,0.01,0.033-0.005,0.044
					C-54.207-41.373-54.251-41.419-54.251-41.419z"/>
				<path fill="#9B936C" d="M-54.128-41.484c-0.016-0.05,0.114-0.115,0.128-0.153c0.011-0.026,0.023-0.061,0.03-0.11h-0.011
					c-0.006,0.049-0.019,0.083-0.03,0.11c-0.015,0.039-0.145,0.104-0.128,0.153H-54.128z"/>
				<polygon fill="#9B936C" points="-54.369,-41.107 -54.35,-40.928 -54.36,-40.928 -54.379,-41.107 				"/>
				<path fill="#9B936C" d="M-54.193-41.401c-0.054,0.012-0.224,0.198-0.212,0.348h-0.011c-0.011-0.162,0.159-0.337,0.213-0.349
					L-54.193-41.401z"/>
				<path fill="#9B936C" d="M-54.125-41.428c0-0.013,0-0.071,0-0.071h-0.01c0,0,0,0.058,0,0.071H-54.125z"/>
				<path fill="#9B936C" d="M-54.182-41.384c0.015-0.011,0.014-0.024,0.006-0.043l-0.012,0c0.009,0.02,0.01,0.033-0.005,0.044
					H-54.182z"/>
			</g>
			
				<rect x="-54.958" y="-41.422" transform="matrix(2.578893e-006 1 -1 2.578893e-006 -95.985 13.1505)" opacity="0.5" fill="#FFFFFF" width="0.78" height="0.009"/>
			<path opacity="0.5" fill="#F2F2F2" d="M-54.572-40.932h0.707v-0.981l-0.707-0.001V-40.932z"/>
			<path opacity="0.55" fill="#FFFFFF" d="M-54.452-40.941h-0.05c-0.028-0.004-0.05,0.002-0.05-0.019c0-0.113,0-0.868,0-0.896
				c0-0.031,0.012-0.033,0.012,0.002c0,0.024,0,0.719,0,0.802c0,0.084,0.02,0.096,0.037,0.096l0.05,0
				C-54.42-40.955-54.42-40.941-54.452-40.941z"/>
			<path opacity="0.03" fill="#040000" d="M-53.905-41.887c0.012,0,0.025-0.002,0.025,0.018c0,0.113,0,0.862,0,0.889
				c0,0.031-0.012,0.033-0.012-0.001c0-0.025,0-0.58,0-0.663C-53.893-41.754-53.905-41.887-53.905-41.887z"/>
			<path fill="#CDC28F" d="M-53.864-40.755v-0.143h-0.096c-0.023,0-0.04-0.015-0.05-0.035h-0.563v0.187h0.698h0.01"/>
			
				<rect x="-54.66" y="-40.843" transform="matrix(2.578893e-006 1 -1 2.578893e-006 -95.4054 13.7296)" opacity="0.5" fill="#FFFFFF" width="0.186" height="0.01"/>
			<path fill="#CDC28F" d="M-53.864-42.111h-0.009h-0.698v0.198h0.639c0.011-0.019,0.027-0.035,0.05-0.035h0.019v-0.153"/>
			
				<rect x="-54.667" y="-42.016" transform="matrix(2.578893e-006 1 -1 2.578893e-006 -96.5792 12.5563)" opacity="0.5" fill="#FFFFFF" width="0.198" height="0.009"/>
		</g>
	</g>
</g>
<g>
	<circle id="connector52pin_2_" fill="#FDFEFE" stroke="#988F6B" stroke-width="0.936" cx="16.586" cy="1.253" r="0.326"/>
	<circle id="connector53pin_2_" fill="#FDFEFE" stroke="#988F6B" stroke-width="0.936" cx="15.257" cy="1.253" r="0.326"/>
	<circle id="connector54pin_2_" fill="#FDFEFE" stroke="#988F6B" stroke-width="0.936" cx="13.928" cy="1.253" r="0.326"/>
	<circle id="connector55pin_2_" fill="#FDFEFE" stroke="#988F6B" stroke-width="0.936" cx="12.599" cy="1.253" r="0.326"/>
	<circle id="connector56pin_2_" fill="#FDFEFE" stroke="#988F6B" stroke-width="0.936" cx="11.27" cy="1.253" r="0.326"/>
	<circle id="connector57pin_2_" fill="#FDFEFE" stroke="#988F6B" stroke-width="0.936" cx="9.94" cy="1.253" r="0.326"/>
	<circle id="connector58pin_2_" fill="#FDFEFE" stroke="#988F6B" stroke-width="0.936" cx="8.611" cy="1.253" r="0.326"/>
	<circle id="connector59pin_2_" fill="#FDFEFE" stroke="#988F6B" stroke-width="0.936" cx="7.282" cy="1.253" r="0.326"/>
	<circle id="connector60pin_2_" fill="#FDFEFE" stroke="#988F6B" stroke-width="0.936" cx="5.952" cy="1.253" r="0.326"/>
	<circle id="connector61pin_2_" fill="#FDFEFE" stroke="#988F6B" stroke-width="0.936" cx="4.623" cy="1.253" r="0.326"/>
	<circle id="connector62pin_2_" fill="#FDFEFE" stroke="#988F6B" stroke-width="0.936" cx="3.294" cy="1.253" r="0.326"/>
	<circle id="connector63pin_2_" fill="#FDFEFE" stroke="#988F6B" stroke-width="0.936" cx="1.965" cy="1.253" r="0.326"/>
</g>
<g>
	<circle id="connector52pin_1_" fill="#FDFEFE" stroke="#988F6B" stroke-width="0.936" cx="16.586" cy="9.229" r="0.326"/>
	<circle id="connector53pin_1_" fill="#FDFEFE" stroke="#988F6B" stroke-width="0.936" cx="15.257" cy="9.229" r="0.326"/>
	<circle id="connector54pin_1_" fill="#FDFEFE" stroke="#988F6B" stroke-width="0.936" cx="13.928" cy="9.229" r="0.326"/>
	<circle id="connector55pin_1_" fill="#FDFEFE" stroke="#988F6B" stroke-width="0.936" cx="12.599" cy="9.229" r="0.326"/>
	<circle id="connector56pin_1_" fill="#FDFEFE" stroke="#988F6B" stroke-width="0.936" cx="11.27" cy="9.229" r="0.326"/>
	<circle id="connector57pin_1_" fill="#FDFEFE" stroke="#988F6B" stroke-width="0.936" cx="9.94" cy="9.229" r="0.326"/>
	<circle id="connector58pin_1_" fill="#FDFEFE" stroke="#988F6B" stroke-width="0.936" cx="8.611" cy="9.229" r="0.326"/>
	<circle id="connector59pin_1_" fill="#FDFEFE" stroke="#988F6B" stroke-width="0.936" cx="7.282" cy="9.229" r="0.326"/>
	<circle id="connector60pin_1_" fill="#FDFEFE" stroke="#988F6B" stroke-width="0.936" cx="5.952" cy="9.229" r="0.326"/>
	<circle id="connector61pin_1_" fill="#FDFEFE" stroke="#988F6B" stroke-width="0.936" cx="4.623" cy="9.229" r="0.326"/>
	<circle id="connector62pin_1_" fill="#FDFEFE" stroke="#988F6B" stroke-width="0.936" cx="3.294" cy="9.229" r="0.326"/>
	<circle id="connector63pin_1_" fill="#FDFEFE" stroke="#988F6B" stroke-width="0.936" cx="1.965" cy="9.229" r="0.326"/>
</g>
</svg>
