<?xml version="1.0" encoding="utf-8"?>
<!-- Generator: Adobe Illustrator 15.0.0, SVG Export Plug-In . SVG Version: 6.00 Build 0)  -->
<!DOCTYPE svg PUBLIC "-//W3C//DTD SVG 1.1 Basic//EN" "http://www.w3.org/Graphics/SVG/1.1/DTD/svg11-basic.dtd">
<svg version="1.1" baseProfile="basic" id="レイヤー_1"
	 xmlns="http://www.w3.org/2000/svg" xmlns:xlink="http://www.w3.org/1999/xlink" x="0px" y="0px" width="152.036px"
	 height="50.4px" viewBox="0 0 152.036 50.4" xml:space="preserve">
<rect x="5.318" fill="#C8688B" width="146.718" height="50.4"/>
<rect x="104.442" y="6.724" fill="#231815" width="40.137" height="40.137"/>
<g>
	<rect x="81.288" y="16.068" fill="#FFFFFF" width="4.746" height="2.441"/>
	<g>
		<rect x="85.628" y="16.068" fill="#AAC8C7" width="1.219" height="2.441"/>
		<rect x="80.677" y="16.068" fill="#AAC8C7" width="1.221" height="2.441"/>
	</g>
</g>
<g>
	<g>
		<rect x="86.458" y="27.059" fill="#AAC8C7" width="2.186" height="2.187"/>
		<rect x="77.593" y="27.059" fill="#AAC8C7" width="2.186" height="2.187"/>
	</g>
	<g>
		<rect x="86.458" y="21.151" fill="#AAC8C7" width="2.186" height="2.187"/>
		<rect x="77.593" y="21.151" fill="#AAC8C7" width="2.186" height="2.187"/>
	</g>
	<rect x="78.687" y="22.121" fill="#FFFFFF" width="8.5" height="6.154"/>
</g>
<g>
	<rect x="91.075" y="22.34" fill="#231815" width="2.441" height="4.745"/>
	<g>
		<rect x="91.075" y="26.679" fill="#AAC8C7" width="2.441" height="1.221"/>
		<rect x="91.075" y="21.729" fill="#AAC8C7" width="2.441" height="1.22"/>
	</g>
</g>
<g>
	<rect x="56.557" y="22.237" fill="#231815" width="2.441" height="4.746"/>
	<g>
		<rect x="56.557" y="26.577" fill="#AAC8C7" width="2.441" height="1.221"/>
		<rect x="56.557" y="21.627" fill="#AAC8C7" width="2.441" height="1.221"/>
	</g>
</g>
<g>
	<rect x="59.563" y="30.476" fill="#231815" width="2.441" height="4.746"/>
	<g>
		<rect x="59.563" y="34.814" fill="#AAC8C7" width="2.441" height="1.22"/>
		<rect x="59.563" y="29.865" fill="#AAC8C7" width="2.441" height="1.22"/>
	</g>
</g>
<g>
	<rect x="41.076" y="32.34" fill="#231815" width="2.439" height="4.745"/>
	<g>
		<rect x="41.076" y="36.679" fill="#AAC8C7" width="2.439" height="1.221"/>
		<rect x="41.076" y="31.729" fill="#AAC8C7" width="2.439" height="1.221"/>
	</g>
</g>
<g>
	<rect x="60.648" y="11.764" fill="#231815" width="4.744" height="2.44"/>
	<g>
		<rect x="59.834" y="11.764" fill="#AAC8C7" width="1.221" height="2.44"/>
		<rect x="64.783" y="11.764" fill="#AAC8C7" width="1.221" height="2.44"/>
	</g>
</g>
<g>
	<rect x="72.169" y="32.34" fill="#FFFFFF" width="2.441" height="4.745"/>
	<g>
		<rect x="72.169" y="36.679" fill="#AAC8C7" width="2.441" height="1.221"/>
		<rect x="72.169" y="31.729" fill="#AAC8C7" width="2.441" height="1.221"/>
	</g>
</g>
<g>
	<rect x="106.544" y="4.928" fill="#AAC8C7" width="0.541" height="1.83"/>
	<rect x="107.979" y="4.928" fill="#AAC8C7" width="0.541" height="1.83"/>
	<rect x="109.413" y="4.928" fill="#AAC8C7" width="0.543" height="1.83"/>
	<rect x="110.847" y="4.928" fill="#AAC8C7" width="0.545" height="1.83"/>
	<rect x="112.284" y="4.928" fill="#AAC8C7" width="0.541" height="1.83"/>
	<rect x="113.718" y="4.928" fill="#AAC8C7" width="0.543" height="1.83"/>
	<rect x="115.155" y="4.928" fill="#AAC8C7" width="0.541" height="1.83"/>
	<rect x="116.589" y="4.928" fill="#AAC8C7" width="0.541" height="1.83"/>
	<rect x="118.022" y="4.928" fill="#AAC8C7" width="0.543" height="1.83"/>
	<rect x="119.458" y="4.928" fill="#AAC8C7" width="0.543" height="1.83"/>
	<rect x="120.894" y="4.928" fill="#AAC8C7" width="0.543" height="1.83"/>
	<rect x="122.329" y="4.928" fill="#AAC8C7" width="0.543" height="1.83"/>
	<rect x="123.765" y="4.928" fill="#AAC8C7" width="0.541" height="1.83"/>
	<rect x="125.2" y="4.928" fill="#AAC8C7" width="0.543" height="1.83"/>
	<rect x="126.634" y="4.928" fill="#AAC8C7" width="0.543" height="1.83"/>
	<rect x="128.069" y="4.928" fill="#AAC8C7" width="0.543" height="1.83"/>
	<rect x="129.505" y="4.928" fill="#AAC8C7" width="0.543" height="1.83"/>
	<rect x="130.938" y="4.928" fill="#AAC8C7" width="0.543" height="1.83"/>
	<rect x="132.374" y="4.928" fill="#AAC8C7" width="0.543" height="1.83"/>
	<rect x="133.81" y="4.928" fill="#AAC8C7" width="0.543" height="1.83"/>
	<rect x="135.245" y="4.928" fill="#AAC8C7" width="0.543" height="1.83"/>
	<rect x="136.681" y="4.928" fill="#AAC8C7" width="0.543" height="1.83"/>
	<rect x="139.552" y="4.928" fill="#AAC8C7" width="0.541" height="1.83"/>
	<rect x="138.114" y="4.928" fill="#AAC8C7" width="0.543" height="1.83"/>
	<rect x="140.985" y="4.928" fill="#AAC8C7" width="0.541" height="1.83"/>
</g>
<g>
	<rect x="106.544" y="46.86" fill="#AAC8C7" width="0.541" height="1.83"/>
	<rect x="107.979" y="46.86" fill="#AAC8C7" width="0.541" height="1.83"/>
	<rect x="109.413" y="46.86" fill="#AAC8C7" width="0.543" height="1.83"/>
	<rect x="110.847" y="46.86" fill="#AAC8C7" width="0.545" height="1.83"/>
	<rect x="112.284" y="46.86" fill="#AAC8C7" width="0.541" height="1.83"/>
	<rect x="113.718" y="46.86" fill="#AAC8C7" width="0.543" height="1.83"/>
	<rect x="115.155" y="46.86" fill="#AAC8C7" width="0.541" height="1.83"/>
	<rect x="116.589" y="46.86" fill="#AAC8C7" width="0.541" height="1.83"/>
	<rect x="118.022" y="46.86" fill="#AAC8C7" width="0.543" height="1.83"/>
	<rect x="119.458" y="46.86" fill="#AAC8C7" width="0.543" height="1.83"/>
	<rect x="120.894" y="46.86" fill="#AAC8C7" width="0.543" height="1.83"/>
	<rect x="122.329" y="46.86" fill="#AAC8C7" width="0.543" height="1.83"/>
	<rect x="123.765" y="46.86" fill="#AAC8C7" width="0.541" height="1.83"/>
	<rect x="125.2" y="46.86" fill="#AAC8C7" width="0.543" height="1.83"/>
	<rect x="126.634" y="46.86" fill="#AAC8C7" width="0.543" height="1.83"/>
	<rect x="128.069" y="46.86" fill="#AAC8C7" width="0.543" height="1.83"/>
	<rect x="129.505" y="46.86" fill="#AAC8C7" width="0.543" height="1.83"/>
	<rect x="130.938" y="46.86" fill="#AAC8C7" width="0.543" height="1.83"/>
	<rect x="132.374" y="46.86" fill="#AAC8C7" width="0.543" height="1.83"/>
	<rect x="133.81" y="46.86" fill="#AAC8C7" width="0.543" height="1.83"/>
	<rect x="135.245" y="46.86" fill="#AAC8C7" width="0.543" height="1.83"/>
	<rect x="136.681" y="46.86" fill="#AAC8C7" width="0.543" height="1.83"/>
	<rect x="139.552" y="46.86" fill="#AAC8C7" width="0.541" height="1.83"/>
	<rect x="138.114" y="46.86" fill="#AAC8C7" width="0.543" height="1.83"/>
	<rect x="140.985" y="46.86" fill="#AAC8C7" width="0.541" height="1.83"/>
</g>
<g>
	<rect x="145.479" y="9.3" fill="#AAC8C7" width="1.832" height="0.542"/>
	<rect x="145.479" y="10.734" fill="#AAC8C7" width="1.832" height="0.542"/>
	<rect x="145.479" y="12.17" fill="#AAC8C7" width="1.832" height="0.542"/>
	<rect x="145.479" y="13.605" fill="#AAC8C7" width="1.832" height="0.542"/>
	<rect x="145.479" y="15.04" fill="#AAC8C7" width="1.832" height="0.542"/>
	<rect x="145.479" y="16.475" fill="#AAC8C7" width="1.832" height="0.543"/>
	<rect x="145.479" y="17.91" fill="#AAC8C7" width="1.832" height="0.542"/>
	<rect x="145.479" y="19.345" fill="#AAC8C7" width="1.832" height="0.542"/>
	<rect x="145.479" y="20.78" fill="#AAC8C7" width="1.832" height="0.542"/>
	<rect x="145.479" y="22.215" fill="#AAC8C7" width="1.832" height="0.542"/>
	<rect x="145.479" y="23.65" fill="#AAC8C7" width="1.832" height="0.543"/>
	<rect x="145.479" y="25.085" fill="#AAC8C7" width="1.832" height="0.543"/>
	<rect x="145.479" y="26.521" fill="#AAC8C7" width="1.832" height="0.543"/>
	<rect x="145.479" y="27.956" fill="#AAC8C7" width="1.832" height="0.541"/>
	<rect x="145.479" y="29.392" fill="#AAC8C7" width="1.832" height="0.541"/>
	<rect x="145.479" y="30.826" fill="#AAC8C7" width="1.832" height="0.542"/>
	<rect x="145.479" y="32.261" fill="#AAC8C7" width="1.832" height="0.542"/>
	<rect x="145.479" y="33.696" fill="#AAC8C7" width="1.832" height="0.543"/>
	<rect x="145.479" y="35.13" fill="#AAC8C7" width="1.832" height="0.543"/>
	<rect x="145.479" y="36.566" fill="#AAC8C7" width="1.832" height="0.542"/>
	<rect x="145.479" y="38.001" fill="#AAC8C7" width="1.832" height="0.543"/>
	<rect x="145.479" y="39.437" fill="#AAC8C7" width="1.832" height="0.543"/>
	<rect x="145.479" y="42.307" fill="#AAC8C7" width="1.832" height="0.543"/>
	<rect x="145.479" y="40.872" fill="#AAC8C7" width="1.832" height="0.541"/>
	<rect x="145.479" y="43.741" fill="#AAC8C7" width="1.832" height="0.543"/>
</g>
<g>
	<rect x="102.61" y="9.3" fill="#AAC8C7" width="1.832" height="0.542"/>
	<rect x="102.61" y="10.734" fill="#AAC8C7" width="1.832" height="0.542"/>
	<rect x="102.61" y="12.17" fill="#AAC8C7" width="1.832" height="0.542"/>
	<rect x="102.61" y="13.605" fill="#AAC8C7" width="1.832" height="0.542"/>
	<rect x="102.61" y="15.04" fill="#AAC8C7" width="1.832" height="0.542"/>
	<rect x="102.61" y="16.475" fill="#AAC8C7" width="1.832" height="0.543"/>
	<rect x="102.61" y="17.91" fill="#AAC8C7" width="1.832" height="0.542"/>
	<rect x="102.61" y="19.345" fill="#AAC8C7" width="1.832" height="0.542"/>
	<rect x="102.61" y="20.78" fill="#AAC8C7" width="1.832" height="0.542"/>
	<rect x="102.61" y="22.215" fill="#AAC8C7" width="1.832" height="0.542"/>
	<rect x="102.61" y="23.65" fill="#AAC8C7" width="1.832" height="0.543"/>
	<rect x="102.61" y="25.085" fill="#AAC8C7" width="1.832" height="0.543"/>
	<rect x="102.61" y="26.521" fill="#AAC8C7" width="1.832" height="0.543"/>
	<rect x="102.61" y="27.956" fill="#AAC8C7" width="1.832" height="0.541"/>
	<rect x="102.61" y="29.392" fill="#AAC8C7" width="1.832" height="0.541"/>
	<rect x="102.61" y="30.826" fill="#AAC8C7" width="1.832" height="0.542"/>
	<rect x="102.61" y="32.261" fill="#AAC8C7" width="1.832" height="0.542"/>
	<rect x="102.61" y="33.696" fill="#AAC8C7" width="1.832" height="0.543"/>
	<rect x="102.61" y="35.13" fill="#AAC8C7" width="1.832" height="0.543"/>
	<rect x="102.61" y="36.566" fill="#AAC8C7" width="1.832" height="0.542"/>
	<rect x="102.61" y="38.001" fill="#AAC8C7" width="1.832" height="0.543"/>
	<rect x="102.61" y="39.437" fill="#AAC8C7" width="1.832" height="0.543"/>
	<rect x="102.61" y="42.307" fill="#AAC8C7" width="1.83" height="0.543"/>
	<rect x="102.61" y="40.872" fill="#AAC8C7" width="1.832" height="0.541"/>
	<rect x="102.61" y="43.741" fill="#AAC8C7" width="1.83" height="0.543"/>
</g>
<text transform="matrix(-4.371138e-008 1 -1 -4.371138e-008 125.2407 11.2759)" fill="#FFFFFF" font-family="'KozGoPro-Regular-90ms-RKSJ-H'" font-size="3.7974">RX631F</text>
<path fill="#3E3A39" d="M143.962,11.36c0,1.273-1.033,2.306-2.307,2.306h-0.709c-1.275,0-2.309-1.033-2.309-2.306v-0.709
	c0-1.274,1.033-2.307,2.309-2.307h0.709c1.273,0,2.307,1.033,2.307,2.307V11.36z"/>
<g id="smd_157sw_1_" transform="matrix(1, 0, 0, 1, 8.7817, 8.95615)">
	<g transform="matrix(0, -1, 1, 0, 0.777996, 13.82)">
		<polygon fill="#717071" points="-4.451,27.657 -4.451,27.462 -0.142,27.462 -0.142,27.657 3.113,27.657 3.113,19.186 
			-7.707,19.186 -7.707,27.657 		"/>
		<polygon fill="#717071" points="-0.142,17.831 -0.142,18.026 -4.451,18.026 -4.451,17.831 -7.707,17.831 -7.707,26.237 
			3.113,26.237 3.113,17.831 		"/>
		<ellipse fill="#611C1B" cx="-2.297" cy="22.745" rx="2.711" ry="2.668"/>
		<path opacity="0.2" fill="#070001" d="M0.37,22.612c0-1.498-1.193-2.713-2.667-2.713c-1.473,0-2.668,1.213-2.668,2.713v0.133
			c0-1.5,1.193-2.715,2.668-2.715c1.474,0,2.667,1.215,2.667,2.715V22.612z"/>
		<ellipse fill="#7D2622" cx="-2.297" cy="22.745" rx="2.613" ry="2.57"/>
		<ellipse fill="#FFFFFF" cx="-2.297" cy="22.806" rx="2.613" ry="2.57"/>
		<g>
			<path opacity="0.1" fill="#070001" d="M-2.235,25.358c1.418,0,2.569-1.17,2.569-2.613c0-1.445-1.151-2.615-2.569-2.615h-0.123
				c1.42,0,2.571,1.17,2.571,2.615c0,1.443-1.15,2.613-2.571,2.613H-2.235z"/>
			<path opacity="0.2" fill="#FFFFFF" d="M-2.235,20.132c-1.423,0-2.571,1.17-2.571,2.613s1.148,2.613,2.571,2.613h-0.123
				c-1.42,0-2.57-1.17-2.57-2.613c0-1.445,1.15-2.613,2.57-2.613H-2.235z"/>
		</g>
		
			<rect x="-6.179" y="25.931" transform="matrix(-2.547107e-006 -1 1 -2.547107e-006 -33.6407 21.4782)" opacity="0.2" fill="#FFFFFF" width="0.195" height="3.258"/>
		
			<rect x="1.388" y="25.932" transform="matrix(-2.547107e-006 -1 1 -2.547107e-006 -26.0741 29.0449)" opacity="0.2" fill="#717071" width="0.195" height="3.255"/>
		
			<rect x="-2.395" y="25.21" transform="matrix(-2.547107e-006 -1 1 -2.547107e-006 -29.661 25.0674)" opacity="0.2" fill="#FFFFFF" width="0.195" height="4.309"/>
		
			<rect x="-6.178" y="16.308" transform="matrix(-2.547107e-006 -1 1 -2.547107e-006 -24.0172 11.8557)" opacity="0.2" fill="#070001" width="0.195" height="3.257"/>
		
			<rect x="1.388" y="16.309" transform="matrix(-2.547107e-006 -1 1 -2.547107e-006 -16.451 19.4218)" opacity="0.2" fill="#070001" width="0.195" height="3.255"/>
		
			<rect x="-2.395" y="15.977" transform="matrix(-2.547107e-006 -1 1 -2.547107e-006 -20.4286 15.8349)" opacity="0.2" fill="#070001" width="0.195" height="4.309"/>
	</g>
	<g>
		<rect x="26.171" y="9.26" fill="#E5E5E4" width="1.193" height="1.433"/>
		<rect x="19.679" y="9.26" fill="#E5E5E4" width="1.193" height="1.433"/>
		<rect x="26.171" y="21.447" fill="#E5E5E4" width="1.193" height="1.434"/>
		<rect x="19.679" y="21.447" fill="#E5E5E4" width="1.193" height="1.434"/>
		<rect x="22.572" y="22.707" opacity="0.2" fill="#FFFFFF" width="1.811" height="0.174"/>
		<rect x="26.171" y="22.707" opacity="0.2" fill="#FFFFFF" width="1.193" height="0.174"/>
		<rect x="19.679" y="22.707" opacity="0.2" fill="#FFFFFF" width="1.193" height="0.174"/>
		<rect x="26.162" y="9.238" opacity="0.2" fill="#070001" width="1.195" height="0.053"/>
		<rect x="19.669" y="9.238" opacity="0.2" fill="#070001" width="1.193" height="0.053"/>
		<rect x="26.179" y="10.512" opacity="0.1" fill="#070001" width="1.193" height="0.175"/>
		<rect x="19.685" y="10.512" opacity="0.1" fill="#070001" width="1.193" height="0.175"/>
	</g>
</g>
<text transform="matrix(1 0 0 1 77.4712 41.4136)" fill="#FFFFFF" font-family="'KozGoPro-Regular-90ms-RKSJ-H'" font-size="4.7721">GR-CITRUS</text>
<rect x="53.658" y="14.044" fill="#AAC8C7" width="1.291" height="0.542"/>
<rect x="53.658" y="17.082" fill="#AAC8C7" width="1.291" height="0.542"/>
<rect x="53.658" y="11.005" fill="#AAC8C7" width="1.291" height="0.542"/>
<rect x="48.928" y="14.044" fill="#AAC8C7" width="1.289" height="0.542"/>
<rect x="48.928" y="17.082" fill="#AAC8C7" width="1.289" height="0.542"/>
<rect x="48.928" y="11.005" fill="#AAC8C7" width="1.289" height="0.542"/>
<rect x="50.021" y="10.293" fill="#231815" width="4.846" height="8.263"/>
<g id="con2_usb_micro_b_at_1_" transform="matrix(1, 0, 0, 1, 14.5557, 123.449)">
	<g id="con2_usb_micro_b_at" transform="matrix(1, 0, 0, 1, 18.6038, 120.082)">
		<g>
			<rect x="-15.245" y="-222.515" fill="#666767" width="1.236" height="0.989"/>
			<rect x="-15.105" y="-222.515" fill="#999999" width="1.096" height="0.09"/>
		</g>
		<g>
			<rect x="-15.245" y="-220.671" fill="#666767" width="1.236" height="0.99"/>
			<rect x="-15.105" y="-220.671" fill="#999999" width="1.096" height="0.09"/>
		</g>
		<g>
			<rect x="-15.245" y="-218.83" fill="#666767" width="1.236" height="0.99"/>
			<rect x="-15.105" y="-218.83" fill="#999999" width="1.096" height="0.089"/>
		</g>
		<g>
			<rect x="-15.245" y="-216.986" fill="#666767" width="1.236" height="0.99"/>
			<rect x="-15.105" y="-216.986" fill="#999999" width="1.096" height="0.088"/>
		</g>
		<g>
			<rect x="-15.245" y="-215.143" fill="#666767" width="1.236" height="0.988"/>
			<rect x="-15.105" y="-215.143" fill="#999999" width="1.096" height="0.088"/>
		</g>
		<g>
			<polygon fill="#B4B3B3" points="-31.972,-208.896 -31.972,-227.74 -14.962,-227.74 -14.962,-208.895 			"/>
			<rect x="-24.617" y="-208.692" fill="#666767" width="3.041" height="0.995"/>
			<rect x="-24.617" y="-228.974" fill="#666767" width="3.041" height="1.003"/>
			<rect x="-15.091" y="-227.74" fill="#CCCCCC" width="0.129" height="18.846"/>
			<rect x="-30.576" y="-223.479" fill="#333333" width="15.613" height="10.29"/>
			<polygon fill="#B4B3B3" points="-31.601,-227.971 -32.077,-227.971 -33.16,-228.611 -33.16,-228.974 			"/>
			<polygon fill="#CCCCCC" points="-32.077,-227.971 -32.077,-227.97 -32.617,-227.971 -33.16,-228.611 			"/>
			<polygon fill="#B4B3B3" points="-33.16,-207.693 -33.16,-208.056 -32.077,-208.696 -31.601,-208.696 			"/>
			<polygon fill="#CCCCCC" points="-33.16,-208.056 -32.617,-208.696 -32.077,-208.697 -32.077,-208.696 			"/>
			<g>
				<g>
					<rect x="-31.599" y="-214.4" fill="#F2F2F2" width="0.648" height="0.479"/>
				</g>
				<g>
					<rect x="-31.599" y="-216.487" fill="#F2F2F2" width="0.648" height="0.479"/>
				</g>
				<g>
					<rect x="-31.599" y="-218.571" fill="#F2F2F2" width="0.648" height="0.478"/>
				</g>
				<g>
					<rect x="-31.599" y="-220.657" fill="#F2F2F2" width="0.648" height="0.478"/>
				</g>
				<g>
					<rect x="-31.599" y="-222.742" fill="#F2F2F2" width="0.648" height="0.478"/>
				</g>
				<g>
					<rect x="-31.599" y="-222.742" fill="#808081" width="0.648" height="0.096"/>
				</g>
				<g>
					<rect x="-31.599" y="-220.657" fill="#808081" width="0.648" height="0.098"/>
				</g>
				<g>
					<rect x="-31.599" y="-218.571" fill="#808081" width="0.648" height="0.099"/>
				</g>
				<g>
					<rect x="-31.599" y="-216.486" fill="#808081" width="0.648" height="0.099"/>
				</g>
				<g>
					<rect x="-31.599" y="-214.399" fill="#808081" width="0.648" height="0.099"/>
				</g>
			</g>
			<path fill="#4E4D4D" d="M-31.785-223.255v0.515h0.396v0.478h-0.396v1.607h0.396v0.478h-0.396v1.607h0.396v0.478h-0.396v1.606
				h0.396v0.479h-0.396v1.606h0.396v0.479h-0.396v0.323v0.271c0,0.078,0.063,0.146,0.146,0.146h1.064
				c0.08,0,0.145-0.063,0.145-0.146v-10.004c0-0.078-0.063-0.146-0.145-0.146h-1.064c-0.078,0-0.146,0.064-0.146,0.146V-223.255z"/>
			<path fill="#CCCCCC" d="M-15.529-227.971l0.566,0.229v2.534c0,0-0.111-2.303-0.281-2.385s-0.285,0.108-0.285,0.108V-227.971z"/>
			<path fill="#CCCCCC" d="M-15.529-208.696l0.566-0.229v-2.534c0,0-0.113,2.302-0.283,2.384s-0.283-0.107-0.283-0.107V-208.696z"/>
			<path fill="#E6E6E5" d="M-14.962-212.085h-1.635v-1.604h1.635v-0.461h-0.564v-8.362h0.564v-0.523h-1.635v-1.604h1.635v-3.325
				H-31.97v19.271h17.008V-212.085z M-28.818-223.04h-0.814v-1.594h0.881c0.277-0.427,0.762-0.708,1.309-0.708
				c0.598,0,1.104,0.22,1.369,0.708l0,0h4.479v1.593h-4.48c-0.266,0.486-0.773,0.824-1.371,0.824
				C-28.044-222.216-28.556-222.552-28.818-223.04z M-28.818-212.152h-0.814v-1.592h0.881c0.277-0.427,0.762-0.707,1.309-0.707
				c0.598,0,1.104,0.217,1.369,0.707l0,0h4.479v1.592h-4.48c-0.266,0.49-0.773,0.826-1.371,0.826S-28.556-211.661-28.818-212.152z"
				/>
			<polygon fill="#F2F2F2" points="-31.972,-227.565 -31.972,-227.971 -15.529,-227.971 -15.529,-226.44 			"/>
			<polygon fill="#999999" points="-31.972,-208.696 -20.992,-209.265 -15.529,-209.832 -15.529,-208.696 			"/>
			<rect x="-21.728" y="-224.633" fill="#CCCCCC" width="0.131" height="1.593"/>
			<rect x="-21.728" y="-213.742" fill="#CCCCCC" width="0.131" height="1.591"/>
			<rect x="-31.769" y="-227.026" fill="#B4B3B3" width="0.66" height="17.388"/>
			<rect x="-31.972" y="-227.026" fill="#CCCCCC" width="0.314" height="17.388"/>
		</g>
	</g>
</g>
<g id="chipled_0805_3_" transform="matrix(1, 0, 0, 1, 11.6415, 32.1755)">
	<g transform="matrix(0, 1, -1, 0, 5.62951, 1.77951)">
		<g id="led-0603_4_" transform="matrix(1, 0, 0, 1, 21.5539, 31.3385)">
			<line fill="none" x1="-49.791" y1="-158.598" x2="-49.791" y2="-165.834"/>
			
				<rect x="-55.381" y="-164.188" transform="matrix(2.578893e-006 1 -1 2.578893e-006 -213.9762 -110.5645)" fill="#F2F2F2" width="7.35" height="3.834"/>
			<path opacity="0.7" fill="#2EAC6F" d="M-49.789-163.346c0,0-0.467-0.645-0.426-0.867c0.041-0.219-0.148-0.541,0-0.676l0.424,0.02
				L-49.789-163.346z"/>
			<g>
				
					<rect x="-52.162" y="-162.68" transform="matrix(2.578893e-006 1 -1 2.578893e-006 -213.9332 -110.4649)" fill="#FFFFFF" width="0.855" height="0.961"/>
				
					<rect x="-51.682" y="-162.224" transform="matrix(2.578893e-006 1 -1 2.578893e-006 -213.4532 -110.9449)" fill="#B4B3B3" width="0.855" height="0.05"/>
			</g>
			<g>
				<polygon fill="#CDC28F" points="-50.213,-163.926 -50.11,-164.889 -50.839,-164.889 -50.737,-163.926 				"/>
				<g>
					<path fill="#CDC28F" d="M-50.412-163.986c0,0.002,0,0.006,0,0.01c-0.035,0.266-0.104,0.445-0.162,0.598
						c-0.08,0.209-0.781,0.561-0.693,0.828c0.012,0.025-0.014,0.061-0.043,0.064c-0.035,0.01-0.067-0.01-0.078-0.039
						c-0.098-0.305,0.615-0.674,0.699-0.895c0.062-0.146,0.123-0.316,0.154-0.57c0.004-0.027,0.033-0.057,0.068-0.049
						C-50.437-164.035-50.412-164.014-50.412-163.986z"/>
				</g>
				<polygon fill="#CDC28F" points="-53.101,-160.506 -53.204,-159.539 -52.474,-159.539 -52.577,-160.506 				"/>
				<g>
					<path fill="#CDC28F" d="M-51.58-162.158c0,0.023-0.02,0.049-0.047,0.057c-0.291,0.063-1.152,1.088-1.152,1.885
						c0,0.033-0.023,0.059-0.063,0.059c-0.033-0.002-0.063-0.025-0.063-0.059v-0.002c0-0.75,0.771-1.893,1.244-1.994
						c0.035-0.008,0.067,0.014,0.078,0.041C-51.58-162.168-51.58-162.162-51.58-162.158z"/>
				</g>
				<path fill="#CDC28F" d="M-51.564-162.629c0,0-0.002,0.357,0.313,0.385c0-0.068,0-0.385,0-0.385H-51.564z"/>
				<path fill="#CDC28F" d="M-51.882-162.193c0,0,0.307-0.156,0.352-0.053c0.047,0.105,0.053,0.178-0.027,0.238
					C-51.644-161.945-51.882-162.193-51.882-162.193z"/>
				<path fill="#9B936C" d="M-51.214-162.553c-0.084-0.27,0.617-0.619,0.697-0.828c0.061-0.145,0.127-0.33,0.162-0.598h-0.06
					c-0.035,0.266-0.104,0.447-0.162,0.598c-0.08,0.209-0.782,0.561-0.694,0.828H-51.214z"/>
				<polygon fill="#9B936C" points="-52.521,-160.506 -52.418,-159.539 -52.474,-159.539 -52.577,-160.506 				"/>
				<path fill="#9B936C" d="M-51.571-162.102c-0.291,0.064-1.211,1.07-1.147,1.885h-0.062c-0.059-0.877,0.861-1.826,1.152-1.887
					L-51.571-162.102z"/>
				<path fill="#9B936C" d="M-51.198-162.244c0-0.07,0-0.383,0-0.383h-0.057c0,0,0,0.313,0,0.383H-51.198z"/>
				<path fill="#9B936C" d="M-51.507-162.006c0.08-0.063,0.076-0.131,0.031-0.236l-0.062-0.002c0.049,0.105,0.051,0.18-0.028,0.238
					H-51.507z"/>
			</g>
			
				<rect x="-55.709" y="-162.213" transform="matrix(2.578893e-006 1 -1 2.578893e-006 -215.7848 -108.5899)" opacity="0.5" fill="#FFFFFF" width="4.223" height="0.051"/>
			<path opacity="0.5" fill="#F2F2F2" d="M-53.621-159.557h3.83v-5.314l-3.83-0.006V-159.557z"/>
			<path opacity="0.55" fill="#FFFFFF" d="M-52.97-159.606h-0.271c-0.149-0.021-0.271,0.012-0.271-0.1c0-0.611,0-4.703,0-4.854
				c0-0.168,0.063-0.178,0.063,0.012c0,0.131,0,3.895,0,4.348c0,0.457,0.104,0.518,0.197,0.518l0.271-0.002
				C-52.795-159.684-52.795-159.606-52.97-159.606z"/>
			<path opacity="0.03" fill="#040000" d="M-50.011-164.734c0.067,0,0.139-0.012,0.139,0.1c0,0.609,0,4.666,0,4.816
				c0,0.168-0.063,0.176-0.063-0.008c0-0.137-0.004-3.141-0.004-3.59C-49.941-164.012-50.011-164.734-50.011-164.734z"/>
			<path fill="#CDC28F" d="M-49.789-158.598v-0.771h-0.521c-0.125,0-0.213-0.08-0.269-0.188h-3.047v1.01h3.782h0.052"/>
			
				<rect x="-54.1" y="-159.077" transform="matrix(2.578893e-006 1 -1 2.578893e-006 -212.6466 -105.4527)" opacity="0.5" fill="#FFFFFF" width="1.006" height="0.054"/>
			<path fill="#CDC28F" d="M-49.789-165.945h-0.049h-3.783v1.072h3.463c0.059-0.104,0.146-0.189,0.271-0.189h0.1v-0.83"/>
			
				<rect x="-54.133" y="-165.433" transform="matrix(2.578893e-006 1 -1 2.578893e-006 -219.0045 -111.8096)" opacity="0.5" fill="#FFFFFF" width="1.072" height="0.051"/>
		</g>
	</g>
</g>
<g>
	<circle id="connector52pin_2_" fill="#FDFEFE" stroke="#988F6B" stroke-width="0.936" cx="89.818" cy="3.601" r="1.764"/>
	<circle id="connector53pin_2_" fill="#FDFEFE" stroke="#988F6B" stroke-width="0.936" cx="82.619" cy="3.601" r="1.764"/>
	<circle id="connector54pin_2_" fill="#FDFEFE" stroke="#988F6B" stroke-width="0.936" cx="75.418" cy="3.601" r="1.764"/>
	<circle id="connector55pin_2_" fill="#FDFEFE" stroke="#988F6B" stroke-width="0.936" cx="68.217" cy="3.601" r="1.764"/>
	<circle id="connector56pin_2_" fill="#FDFEFE" stroke="#988F6B" stroke-width="0.936" cx="61.018" cy="3.601" r="1.764"/>
	<circle id="connector57pin_2_" fill="#FDFEFE" stroke="#988F6B" stroke-width="0.936" cx="53.818" cy="3.601" r="1.764"/>
	<circle id="connector58pin_2_" fill="#FDFEFE" stroke="#988F6B" stroke-width="0.936" cx="46.617" cy="3.601" r="1.764"/>
	<circle id="connector59pin_2_" fill="#FDFEFE" stroke="#988F6B" stroke-width="0.936" cx="39.418" cy="3.601" r="1.764"/>
	<circle id="connector60pin_2_" fill="#FDFEFE" stroke="#988F6B" stroke-width="0.936" cx="32.217" cy="3.601" r="1.764"/>
	<circle id="connector61pin_2_" fill="#FDFEFE" stroke="#988F6B" stroke-width="0.936" cx="25.018" cy="3.601" r="1.764"/>
	<circle id="connector62pin_2_" fill="#FDFEFE" stroke="#988F6B" stroke-width="0.936" cx="17.818" cy="3.601" r="1.764"/>
	<circle id="connector63pin_2_" fill="#FDFEFE" stroke="#988F6B" stroke-width="0.936" cx="10.617" cy="3.601" r="1.764"/>
</g>
<g>
	<circle id="connector52pin_1_" fill="#FDFEFE" stroke="#988F6B" stroke-width="0.936" cx="89.818" cy="46.8" r="1.764"/>
	<circle id="connector53pin_1_" fill="#FDFEFE" stroke="#988F6B" stroke-width="0.936" cx="82.619" cy="46.8" r="1.764"/>
	<circle id="connector54pin_1_" fill="#FDFEFE" stroke="#988F6B" stroke-width="0.936" cx="75.418" cy="46.8" r="1.764"/>
	<circle id="connector55pin_1_" fill="#FDFEFE" stroke="#988F6B" stroke-width="0.936" cx="68.217" cy="46.8" r="1.764"/>
	<circle id="connector56pin_1_" fill="#FDFEFE" stroke="#988F6B" stroke-width="0.936" cx="61.018" cy="46.8" r="1.764"/>
	<circle id="connector57pin_1_" fill="#FDFEFE" stroke="#988F6B" stroke-width="0.936" cx="53.818" cy="46.8" r="1.764"/>
	<circle id="connector58pin_1_" fill="#FDFEFE" stroke="#988F6B" stroke-width="0.936" cx="46.617" cy="46.8" r="1.764"/>
	<circle id="connector59pin_1_" fill="#FDFEFE" stroke="#988F6B" stroke-width="0.936" cx="39.418" cy="46.8" r="1.764"/>
	<circle id="connector60pin_1_" fill="#FDFEFE" stroke="#988F6B" stroke-width="0.936" cx="32.217" cy="46.8" r="1.764"/>
	<circle id="connector61pin_1_" fill="#FDFEFE" stroke="#988F6B" stroke-width="0.936" cx="25.018" cy="46.8" r="1.764"/>
	<circle id="connector62pin_1_" fill="#FDFEFE" stroke="#988F6B" stroke-width="0.936" cx="17.818" cy="46.8" r="1.764"/>
	<circle id="connector63pin_1_" fill="#FDFEFE" stroke="#988F6B" stroke-width="0.936" cx="10.617" cy="46.8" r="1.764"/>
</g>
</svg>
